# Blender v3.1.2 OBJ File: 'crystal-tower.blend'
# www.blender.org
o Cube.001
v 0.500000 0.500000 -0.500000
v -0.500000 0.500000 -0.500000
v -0.500000 0.500000 0.500000
v 0.500000 0.500000 0.500000
v 0.500000 -0.500000 0.500000
v -0.500000 -0.500000 0.500000
v -0.500000 -0.500000 -0.500000
v 0.500000 -0.500000 -0.500000
vt 0.750000 0.625000
vt 0.750000 0.625000
vt 0.750000 0.625000
vt 0.887784 0.343750
vt 0.887784 0.343750
vt 0.887784 0.343750
vt 0.569602 0.281250
vt 0.569602 0.281250
vt 0.569602 0.281250
vt 0.107955 0.468750
vt 0.107955 0.468750
vt 0.107955 0.468750
vt 0.303977 0.437500
vt 0.303977 0.437500
vt 0.303977 0.437500
vt 0.561080 0.437500
vt 0.561080 0.437500
vt 0.561080 0.437500
vt 0.750000 0.625000
vt 0.887784 0.343750
vt 0.569602 0.281250
vt 0.107955 0.468750
vt 0.303977 0.437500
vt 0.561080 0.437500
vn 0.0000 1.0000 0.0000
vn 0.0000 -0.0000 1.0000
vn -1.0000 -0.0000 0.0000
vn 0.0000 -1.0000 -0.0000
vn 1.0000 -0.0000 0.0000
vn 0.0000 0.0000 -1.0000
s 1
f 2/1/1 4/2/1 1/3/1
f 4/4/2 6/5/2 5/6/2
f 3/7/3 7/8/3 6/9/3
f 8/10/4 6/11/4 7/12/4
f 1/13/5 5/14/5 8/15/5
f 2/16/6 8/17/6 7/18/6
f 2/1/1 3/19/1 4/2/1
f 4/4/2 3/20/2 6/5/2
f 3/7/3 2/21/3 7/8/3
f 8/10/4 5/22/4 6/11/4
f 1/13/5 4/23/5 5/14/5
f 2/16/6 1/24/6 8/17/6
