# Blender v3.1.2 OBJ File: 'crystal-tower.blend'
# www.blender.org
o fire_crystal_tower_towerRound_crystals.001
v -0.000000 0.100000 -0.500000
v 0.129410 0.000000 -0.482963
v 0.000000 0.000000 -0.500000
v 0.129410 0.100000 -0.482963
v 0.433013 0.100000 0.250000
v 0.482963 -0.000000 0.129410
v 0.482963 0.100000 0.129410
v 0.433013 -0.000000 0.250000
v -0.129410 0.100000 -0.482963
v -0.000000 0.160000 -0.435000
v -0.112586 0.160000 -0.420178
v -0.482963 -0.000000 0.129410
v -0.500000 0.100000 0.000000
v -0.500000 0.000000 0.000000
v -0.482963 0.100000 0.129410
v -0.482963 0.000000 -0.129410
v -0.433013 0.100000 -0.250000
v -0.433013 0.000000 -0.250000
v -0.482963 0.100000 -0.129410
v -0.433013 -0.000000 0.250000
v -0.433013 0.000000 -0.433013
v -0.433013 -0.000000 0.433013
v -0.250000 0.000000 -0.433013
v -0.250000 -0.000000 0.433013
v -0.129410 0.000000 -0.482963
v -0.129410 -0.000000 0.482963
v 0.000000 -0.000000 0.500000
v 0.129410 -0.000000 0.482963
v 0.250000 0.000000 -0.433013
v 0.250000 -0.000000 0.433013
v 0.433013 0.000000 -0.433013
v 0.433013 0.000000 -0.250000
v 0.433013 -0.000000 0.433013
v 0.482963 0.000000 -0.129410
v 0.500000 0.000000 0.000000
v 0.250000 0.100000 -0.433013
v 0.353553 0.100000 -0.353553
v 0.376721 0.160000 -0.217500
v 0.433013 0.100000 -0.250000
v 0.307591 0.160000 -0.307591
v -0.000000 0.100000 0.500000
v 0.129410 0.100000 0.482963
v -0.435000 0.160000 0.000000
v -0.420178 0.160000 -0.112586
v -0.217500 0.160000 -0.376721
v -0.250000 0.100000 -0.433013
v 0.482963 0.100000 -0.129410
v 0.435000 0.160000 0.000000
v 0.500000 0.100000 0.000000
v 0.420178 0.160000 0.112586
v -0.307591 0.160000 -0.307591
v -0.353553 0.100000 -0.353553
v 0.217500 0.160000 -0.376721
v 0.112586 0.160000 -0.420178
v -0.129410 0.100000 0.482963
v 0.376721 0.160000 0.217500
v 0.420178 0.160000 -0.112586
v -0.433013 0.100000 0.250000
v 0.217500 0.160000 0.376721
v 0.250000 0.100000 0.433013
v 0.112586 0.160000 0.420178
v -0.217500 0.160000 0.376721
v -0.112586 0.160000 0.420178
v -0.250000 0.100000 0.433013
v -0.376721 0.160000 -0.217500
v -0.000000 0.160000 0.435000
v -0.307591 0.160000 0.307591
v -0.353553 0.100000 0.353553
v -0.420178 0.160000 0.112586
v 0.353553 0.100000 0.353553
v 0.307591 0.160000 0.307591
v -0.376721 0.160000 0.217500
v 0.323672 0.160000 -0.086728
v 0.323672 0.160000 0.086728
v 0.335090 0.160000 0.000000
v 0.290196 0.160000 -0.167545
v 0.290196 0.160000 0.167545
v 0.236944 0.160000 -0.236944
v 0.236944 0.160000 0.236944
v 0.167545 0.160000 -0.290196
v 0.167545 0.160000 0.290196
v 0.086728 0.160000 -0.323672
v 0.086728 0.160000 0.323672
v -0.000000 0.160000 -0.335090
v -0.000000 0.160000 0.335090
v -0.086728 0.160000 -0.323672
v -0.086728 0.160000 0.323672
v -0.167545 0.160000 0.290196
v -0.167545 0.160000 -0.290196
v -0.236944 0.160000 -0.236944
v -0.236944 0.160000 0.236944
v -0.290196 0.160000 -0.167545
v -0.290196 0.160000 0.167545
v -0.323672 0.160000 -0.086728
v -0.323672 0.160000 0.086728
v -0.335090 0.160000 0.000000
v 0.420178 0.210000 -0.112586
v 0.420178 0.210000 0.112586
v 0.435000 0.210000 0.000000
v 0.376721 0.210000 -0.217500
v 0.376721 0.210000 0.217500
v 0.307591 0.210000 -0.307591
v 0.335090 0.210000 0.000000
v 0.323672 0.210000 -0.086728
v 0.290196 0.210000 -0.167545
v 0.217500 0.210000 -0.376721
v 0.236944 0.210000 -0.236944
v 0.167545 0.210000 -0.290196
v 0.112586 0.210000 -0.420178
v 0.086728 0.210000 -0.323672
v -0.000000 0.210000 -0.435000
v -0.000000 0.210000 -0.335090
v -0.086728 0.210000 -0.323672
v -0.112586 0.210000 -0.420178
v -0.167545 0.210000 -0.290196
v -0.217500 0.210000 -0.376721
v -0.236944 0.210000 -0.236944
v -0.307591 0.210000 -0.307591
v -0.290196 0.210000 -0.167545
v -0.323672 0.210000 -0.086728
v -0.376721 0.210000 -0.217500
v -0.335090 0.210000 0.000000
v -0.376721 0.210000 0.217500
v -0.323672 0.210000 0.086728
v -0.307591 0.210000 0.307591
v -0.290196 0.210000 0.167545
v -0.236944 0.210000 0.236944
v -0.217500 0.210000 0.376721
v -0.167545 0.210000 0.290196
v -0.112586 0.210000 0.420178
v -0.086728 0.210000 0.323672
v -0.000000 0.210000 0.435000
v -0.000000 0.210000 0.335090
v 0.086728 0.210000 0.323672
v 0.112586 0.210000 0.420178
v 0.167545 0.210000 0.290196
v 0.217500 0.210000 0.376721
v 0.236944 0.210000 0.236944
v 0.290196 0.210000 0.167545
v 0.307591 0.210000 0.307591
v 0.323672 0.210000 0.086728
v -0.420178 0.210000 -0.112586
v -0.420178 0.210000 0.112586
v -0.435000 0.210000 0.000000
v -0.031250 0.817500 -0.031250
v 0.031250 0.817500 0.031250
v 0.031250 0.817500 -0.031250
v -0.031250 0.817500 0.031250
v -0.031250 0.270000 0.031250
v 0.031250 0.270000 -0.031250
v 0.031250 0.270000 0.031250
v -0.031250 0.270000 -0.031250
v -0.125000 0.420000 0.125000
v -0.125000 0.667500 -0.125000
v -0.125000 0.420000 -0.125000
v -0.125000 0.667500 0.125000
v 0.125000 0.667500 0.125000
v 0.125000 0.420000 0.125000
v 0.125000 0.420000 -0.125000
v 0.125000 0.667500 -0.125000
vt 0.387620 0.393725
vt 0.387620 0.393725
vt 0.387620 0.393725
vt 0.387620 0.393725
vt 0.387620 0.393725
vt 0.387620 0.393725
vt 0.387620 0.393725
vt 0.387620 0.393725
vt 0.387620 0.393725
vt 0.387620 0.393725
vt 0.387620 0.393725
vt 0.387620 0.393725
vt 0.387620 0.393725
vt 0.387620 0.393725
vt 0.387620 0.393725
vt 0.387620 0.393725
vt 0.387620 0.393725
vt 0.387620 0.393725
vt 0.387620 0.393725
vt 0.928977 0.406250
vt 0.928977 0.406250
vt 0.928977 0.406250
vt 0.928977 0.406250
vt 0.928977 0.406250
vt -17.047741 -17.047741
vt -17.047741 9.842520
vt -17.047741 -9.842520
vt -17.047741 17.047741
vt 0.928977 0.406250
vt 0.928977 0.406250
vt 0.928977 0.406250
vt 0.928977 0.406250
vt 0.928977 0.406250
vt 0.928977 0.406250
vt 0.928977 0.406250
vt 0.928977 0.406250
vt 0.928977 0.406250
vt 0.928977 0.406250
vt 0.928977 0.406250
vt 0.928977 0.406250
vt 0.928977 0.406250
vt 0.928977 0.406250
vt 0.928977 0.406250
vt 0.928977 0.406250
vt 0.928977 0.406250
vt 0.928977 0.406250
vt 0.928977 0.406250
vt 0.387620 0.393725
vt 0.387620 0.393725
vt 0.387620 0.393725
vt 0.387620 0.393725
vt 0.387620 0.393725
vt 0.387620 0.393725
vt 0.387620 0.393725
vt 0.387620 0.393725
vt 0.387620 0.393725
vt 0.387620 0.393725
vt 0.387620 0.393725
vt 0.387620 0.393725
vt 0.387620 0.393725
vt 0.387620 0.393725
vt 0.387620 0.393725
vt 0.387620 0.393725
vt 0.387620 0.393725
vt 0.387620 0.393725
vt 0.387620 0.393725
vt 0.387620 0.393725
vt 0.387620 0.393725
vt 0.387620 0.393725
vt 0.387620 0.393725
vt 0.387620 0.393725
vt 0.387620 0.393725
vt 0.387620 0.393725
vt 0.387620 0.393725
vt 0.387620 0.393725
vt 0.387620 0.393725
vt 0.387620 0.393725
vt 0.387620 0.393725
vt 0.387620 0.393725
vt 0.387620 0.393725
vt 0.387620 0.393725
vt 0.387620 0.393725
vt 0.387620 0.393725
vt 0.387620 0.393725
vt 0.387620 0.393725
vt 0.387620 0.393725
vt 0.387620 0.393725
vt 0.387620 0.393725
vt 0.387620 0.393725
vt 0.387620 0.393725
vt 0.387620 0.393725
vt 0.387620 0.393725
vt 0.387620 0.393725
vt 0.387620 0.393725
vt 0.387620 0.393725
vt 0.387620 0.393725
vt 0.931818 0.473471
vt 0.931818 0.473471
vt 0.931818 0.473471
vt 0.931818 0.473471
vt 0.931818 0.473471
vt 0.931818 0.473471
vt 0.931818 0.473471
vt 0.931818 0.473471
vt 0.931818 0.473471
vt 0.931818 0.473471
vt 0.931818 0.473471
vt 0.931818 0.473471
vt 0.931818 0.473471
vt 0.931818 0.473471
vt 0.931818 0.473471
vt 0.931818 0.473471
vt 0.931818 0.473471
vt 0.931818 0.473471
vt 0.931818 0.473471
vt 0.931818 0.473471
vt 0.931818 0.473471
vt 0.931818 0.473471
vt 0.931818 0.473471
vt 0.931818 0.473471
vt -12.742980 -3.414471
vt -12.742980 3.414471
vt -13.192500 0.000000
vt 0.387620 0.393725
vt 0.387620 0.393725
vt 0.387620 0.393725
vt 0.387620 0.393725
vt 0.387620 0.393725
vt 0.387620 0.393725
vt 0.387620 0.393725
vt 0.387620 0.393725
vt 0.387620 0.393725
vt 0.387620 0.393725
vt 0.387620 0.393725
vt 0.387620 0.393725
vt 0.387620 0.393725
vt 0.387620 0.393725
vt 0.387620 0.393725
vt 0.387620 0.393725
vt 0.387620 0.393725
vt 0.387620 0.393725
vt 0.387620 0.393725
vt 0.387620 0.393725
vt 0.387620 0.393725
vt 0.387620 0.393725
vt 0.387620 0.393725
vt 0.933239 0.468750
vt 0.933239 0.468750
vt 0.933239 0.468750
vt 0.933239 0.468750
vt 0.933239 0.468750
vt 0.933239 0.468750
vt 0.933239 0.468750
vt 0.933239 0.468750
vt 0.933239 0.468750
vt 0.933239 0.468750
vt 0.933239 0.468750
vt 0.933239 0.468750
vt 0.933239 0.468750
vt 0.933239 0.468750
vt 0.933239 0.468750
vt 0.933239 0.468750
vt 0.933239 0.468750
vt 0.933239 0.468750
vt 0.933239 0.468750
vt 0.933239 0.468750
vt 0.933239 0.468750
vt 0.933239 0.468750
vt 0.933239 0.468750
vt 0.933239 0.468750
vt 0.933239 0.468750
vt 0.933239 0.468750
vt 0.933239 0.468750
vt 0.933239 0.468750
vt 0.933239 0.468750
vt 0.933239 0.468750
vt 0.933239 0.468750
vt 0.933239 0.468750
vt 0.933239 0.468750
vt 0.933239 0.468750
vt 0.933239 0.468750
vt 0.933239 0.468750
vt 0.933239 0.468750
vt 0.933239 0.468750
vt 0.933239 0.468750
vt 0.933239 0.468750
vt 0.933239 0.468750
vt 0.933239 0.468750
vt 0.933239 0.468750
vt 0.933239 0.468750
vt 0.933239 0.468750
vt 0.933239 0.468750
vt 0.933239 0.468750
vt 0.933239 0.468750
vt 0.933239 0.468750
vt 0.933239 0.468750
vt 0.933239 0.468750
vt 0.933239 0.468750
vt 0.933239 0.468750
vt 0.933239 0.468750
vt 0.933239 0.468750
vt 0.933239 0.468750
vt 0.933239 0.468750
vt 0.933239 0.468750
vt 0.933239 0.468750
vt 0.933239 0.468750
vt 0.933239 0.468750
vt 0.933239 0.468750
vt 0.933239 0.468750
vt 0.933239 0.468750
vt 0.933239 0.468750
vt 0.933239 0.468750
vt 0.933239 0.468750
vt 0.933239 0.468750
vt 0.933239 0.468750
vt 0.933239 0.468750
vt 0.933239 0.468750
vt 0.933239 0.468750
vt 0.933239 0.468750
vt 0.933239 0.468750
vt 0.933239 0.468750
vt 0.933239 0.468750
vt 0.933239 0.468750
vt 0.933239 0.468750
vt 0.933239 0.468750
vt 0.933239 0.468750
vt 0.933239 0.468750
vt 0.933239 0.468750
vt 0.933239 0.468750
vt 0.933239 0.468750
vt 0.933239 0.468750
vt 0.933239 0.468750
vt 0.933239 0.468750
vt 0.933239 0.468750
vt 0.933239 0.468750
vt 0.933239 0.468750
vt 0.933239 0.468750
vt 0.933239 0.468750
vt 0.933239 0.468750
vt 0.933239 0.468750
vt 0.933239 0.468750
vt 0.933239 0.468750
vt 0.410975 0.207267
vt 0.410975 0.207267
vt 0.410975 0.207267
vt 0.410975 0.207267
vt 0.410975 0.207267
vt 0.410975 0.207267
vt 0.410975 0.207267
vt 0.410975 0.207267
vt 0.410975 0.207267
vt 0.410975 0.207267
vt 0.410975 0.207267
vt 0.410975 0.207267
vt 0.410975 0.207267
vt 0.410975 0.207267
vt 0.410975 0.207267
vt 0.410975 0.207267
vn 0.0000 0.0000 -1.0000
vn 0.2588 0.0000 -0.9659
vn 0.9239 0.0000 0.3827
vn 0.9659 0.0000 0.2588
vn -0.1756 0.7348 -0.6552
vn 0.0000 0.7348 -0.6783
vn -0.9659 -0.0000 0.2588
vn -1.0000 0.0000 -0.0000
vn -0.9659 0.0000 -0.2588
vn -0.9239 0.0000 -0.3827
vn 0.0000 -1.0000 -0.0000
vn -0.1768 -0.9842 -0.0086
vn -0.4055 0.9141 -0.0000
vn -0.0002 -1.0000 -0.0000
vn 0.3827 0.0000 -0.9239
vn 0.4796 0.7348 -0.4796
vn 0.5874 0.7348 -0.3391
vn 0.2588 0.0000 0.9659
vn -0.0000 0.0000 1.0000
vn -0.6552 0.7348 -0.1756
vn -0.6783 0.7348 0.0000
vn -0.3391 0.7348 -0.5874
vn 0.9659 0.0000 -0.2588
vn 0.9239 0.0000 -0.3827
vn 0.6783 0.7348 0.0000
vn 0.6552 0.7348 0.1756
vn -0.4796 0.7348 -0.4796
vn 0.1756 0.7348 -0.6552
vn 0.3391 0.7348 -0.5874
vn -0.2588 0.0000 0.9659
vn 1.0000 0.0000 -0.0000
vn 0.5874 0.7348 0.3391
vn 0.6552 0.7348 -0.1756
vn -0.3827 0.0000 -0.9239
vn -0.2588 0.0000 -0.9659
vn -0.9239 0.0000 0.3827
vn 0.3391 0.7348 0.5874
vn 0.1756 0.7348 0.6552
vn -0.3391 0.7348 0.5874
vn -0.1756 0.7348 0.6552
vn 0.3827 0.0000 0.9239
vn -0.5874 0.7348 -0.3391
vn 0.0000 0.7348 0.6783
vn -0.4796 0.7348 0.4796
vn -0.6552 0.7348 0.1756
vn 0.4796 0.7348 0.4796
vn -0.3827 0.0000 0.9239
vn -0.5874 0.7348 0.3391
vn -0.4701 0.7470 0.4701
vn -0.4066 0.7442 0.5299
vn -0.5299 0.7442 0.4066
vn -0.4701 0.7470 -0.4701
vn -0.4066 0.7442 -0.5299
vn -0.5299 0.7442 -0.4066
vn 0.4701 0.7470 -0.4701
vn 0.5299 0.7442 -0.4066
vn 0.4066 0.7442 -0.5299
vn 0.4701 0.7470 0.4701
vn 0.5299 0.7442 0.4066
vn 0.4066 0.7442 0.5299
vn 0.0000 1.0000 0.0000
vn -0.7071 -0.0000 0.7071
vn -0.8660 -0.0000 0.5000
vn -0.5000 0.0000 0.8660
vn 0.5000 0.0000 0.8660
vn 0.7071 0.0000 0.7071
vn 0.8660 -0.0000 0.5000
vn 0.8660 0.0000 -0.5000
vn 0.7071 0.0000 -0.7071
vn 0.5000 0.0000 -0.8660
vn -0.5000 0.0000 -0.8660
vn -0.7071 0.0000 -0.7071
vn -0.8660 0.0000 -0.5000
vn -0.0000 0.3317 -0.9434
vn 0.9434 0.3317 -0.0000
vn 0.0000 0.3317 0.9434
vn -0.9434 0.3317 0.0000
vn -0.9434 -0.3317 -0.0000
vn 0.9434 -0.3317 0.0000
vn -0.0000 -0.3317 -0.9434
vn 0.0000 -0.3317 0.9434
s 1
f 1/1/1 2/2/2 3/3/1
f 2/2/2 1/1/1 4/4/2
f 5/5/3 6/6/4 7/7/4
f 6/6/4 5/5/3 8/8/3
f 9/9/5 10/10/6 1/1/6
f 10/10/6 9/9/5 11/11/5
f 12/12/7 13/13/8 14/14/8
f 13/13/8 12/12/7 15/15/7
f 16/16/9 17/17/10 18/18/10
f 17/17/10 16/16/9 19/19/9
f 12/20/11 18/21/12 20/22/13
f 18/21/12 12/20/11 16/23/11
f 16/23/11 12/20/11 14/24/11
f 21/25/14 20/26/13 18/27/12
f 21/25/14 22/28/14 20/26/13
f 23/29/11 22/30/14 21/31/14
f 23/29/11 24/32/11 22/30/14
f 25/33/11 24/32/11 23/29/11
f 25/33/11 26/34/11 24/32/11
f 3/35/11 26/34/11 25/33/11
f 3/35/11 27/36/11 26/34/11
f 3/35/11 28/37/11 27/36/11
f 2/38/11 28/37/11 3/35/11
f 29/39/11 28/37/11 2/38/11
f 29/39/11 30/40/11 28/37/11
f 31/41/11 30/40/11 29/39/11
f 32/42/11 30/40/11 31/41/11
f 8/43/11 30/40/11 32/42/11
f 30/40/11 8/43/11 33/44/11
f 34/45/11 8/43/11 32/42/11
f 34/45/11 6/46/11 8/43/11
f 6/46/11 34/45/11 35/47/11
f 4/4/2 29/48/15 2/2/2
f 29/48/15 4/4/2 36/49/15
f 37/50/16 38/51/17 39/52/17
f 38/51/17 37/50/16 40/53/16
f 28/54/18 41/55/19 27/56/19
f 41/55/19 28/54/18 42/57/18
f 19/19/20 43/58/21 44/59/20
f 43/58/21 19/19/20 13/13/21
f 9/9/5 45/60/22 11/11/5
f 45/60/22 9/9/5 46/61/22
f 14/14/8 19/19/9 16/16/9
f 19/19/9 14/14/8 13/13/8
f 47/62/23 32/63/24 39/52/24
f 32/63/24 47/62/23 34/64/23
f 48/65/25 7/7/26 49/66/25
f 7/7/26 48/65/25 50/67/26
f 46/61/22 51/68/27 45/60/22
f 51/68/27 46/61/22 52/69/27
f 4/4/28 53/70/29 36/49/29
f 53/70/29 4/4/28 54/71/28
f 27/56/19 55/72/30 26/73/30
f 55/72/30 27/56/19 41/55/19
f 7/7/4 35/74/31 49/66/31
f 35/74/31 7/7/4 6/6/4
f 50/67/26 5/5/32 7/7/26
f 5/5/32 50/67/26 56/75/32
f 39/52/17 57/76/33 47/62/33
f 57/76/33 39/52/17 38/51/17
f 46/61/34 25/77/35 23/78/34
f 25/77/35 46/61/34 9/9/35
f 20/79/36 15/15/7 12/12/7
f 15/15/7 20/79/36 58/80/36
f 9/9/35 3/3/1 25/77/35
f 3/3/1 9/9/35 1/1/1
f 59/81/37 42/57/38 60/82/37
f 42/57/38 59/81/37 61/83/38
f 62/84/39 55/72/40 63/85/40
f 55/72/40 62/84/39 64/86/39
f 30/87/41 42/57/18 28/54/18
f 42/57/18 30/87/41 60/82/41
f 52/69/27 65/88/42 51/68/27
f 65/88/42 52/69/27 17/17/42
f 61/83/38 41/55/43 42/57/38
f 41/55/43 61/83/38 66/89/43
f 67/90/44 64/86/39 62/84/39
f 64/86/39 67/90/44 68/91/44
f 49/66/31 34/64/23 47/62/23
f 34/64/23 49/66/31 35/74/31
f 43/58/21 15/15/45 69/92/45
f 15/15/45 43/58/21 13/13/21
f 56/75/32 70/93/46 5/5/32
f 70/93/46 56/75/32 71/94/46
f 47/62/33 48/65/25 49/66/25
f 48/65/25 47/62/33 57/76/33
f 66/89/43 55/72/40 41/55/43
f 55/72/40 66/89/43 63/85/40
f 26/73/30 64/86/47 24/95/47
f 64/86/47 26/73/30 55/72/30
f 69/92/45 58/80/48 72/96/48
f 58/80/48 69/92/45 15/15/45
f 71/94/46 60/82/37 70/93/46
f 60/82/37 71/94/46 59/81/37
f 1/1/6 54/71/28 4/4/28
f 54/71/28 1/1/6 10/10/6
f 17/17/42 44/59/20 65/88/42
f 44/59/20 17/17/42 19/19/20
f 72/96/48 68/91/44 67/90/44
f 68/91/44 72/96/48 58/80/48
f 36/49/29 40/53/16 37/50/16
f 40/53/16 36/49/29 53/70/29
f 22/97/8 58/98/8 20/99/8
f 22/97/49 64/100/50 68/101/49
f 58/98/51 22/97/49 68/101/49
f 64/100/19 22/97/19 24/102/19
f 21/103/52 52/104/52 46/105/53
f 17/106/54 52/104/52 21/103/52
f 17/106/8 21/103/8 18/107/8
f 46/105/1 23/108/1 21/103/1
f 37/109/55 39/110/56 31/111/55
f 36/112/57 37/109/55 31/111/55
f 36/112/1 31/111/1 29/113/1
f 32/114/31 31/111/31 39/110/31
f 60/115/19 30/116/19 33/117/19
f 70/118/58 33/117/58 5/119/59
f 60/115/60 33/117/58 70/118/58
f 33/117/31 8/120/31 5/119/31
f 73/121/61 74/122/61 75/123/61
f 74/124/61 73/125/61 76/126/61
f 74/124/61 76/126/61 77/127/61
f 77/127/61 76/126/61 78/128/61
f 77/127/61 78/128/61 79/129/61
f 79/129/61 78/128/61 80/130/61
f 79/129/61 80/130/61 81/131/61
f 81/131/61 80/130/61 82/132/61
f 81/131/61 82/132/61 83/133/61
f 83/133/61 82/132/61 84/134/61
f 83/133/61 84/134/61 85/135/61
f 85/135/61 84/134/61 86/136/61
f 85/135/61 86/136/61 87/137/61
f 87/137/61 86/136/61 88/138/61
f 88/138/61 86/136/61 89/139/61
f 88/138/61 89/139/61 90/140/61
f 88/138/61 90/140/61 91/141/61
f 91/141/61 90/140/61 92/142/61
f 91/141/61 92/142/61 93/143/61
f 93/143/61 92/142/61 94/144/61
f 93/143/61 94/144/61 95/145/61
f 95/145/61 94/144/61 96/146/61
f 97/147/61 98/148/61 99/149/61
f 98/148/61 97/147/61 100/150/61
f 98/148/61 100/150/61 101/151/61
f 101/151/61 100/150/61 102/152/61
f 101/151/61 102/152/61 103/153/61
f 103/153/61 102/152/61 104/154/61
f 104/154/61 102/152/61 105/155/61
f 105/155/61 102/152/61 106/156/61
f 105/155/61 106/156/61 107/157/61
f 107/157/61 106/156/61 108/158/61
f 108/158/61 106/156/61 109/159/61
f 108/158/61 109/159/61 110/160/61
f 110/160/61 109/159/61 111/161/61
f 110/160/61 111/161/61 112/162/61
f 112/162/61 111/161/61 113/163/61
f 113/163/61 111/161/61 114/164/61
f 113/163/61 114/164/61 115/165/61
f 115/165/61 114/164/61 116/166/61
f 115/165/61 116/166/61 117/167/61
f 117/167/61 116/166/61 118/168/61
f 117/167/61 118/168/61 119/169/61
f 119/169/61 118/168/61 120/170/61
f 120/170/61 118/168/61 121/171/61
f 120/170/61 121/171/61 122/172/61
f 123/173/61 122/172/61 121/171/61
f 123/173/61 124/174/61 122/172/61
f 125/175/61 124/174/61 123/173/61
f 125/175/61 126/176/61 124/174/61
f 125/175/61 127/177/61 126/176/61
f 128/178/61 127/177/61 125/175/61
f 128/178/61 129/179/61 127/177/61
f 130/180/61 129/179/61 128/178/61
f 130/180/61 131/181/61 129/179/61
f 132/182/61 131/181/61 130/180/61
f 132/182/61 133/183/61 131/181/61
f 132/182/61 134/184/61 133/183/61
f 135/185/61 134/184/61 132/182/61
f 135/185/61 136/186/61 134/184/61
f 137/187/61 136/186/61 135/185/61
f 137/187/61 138/188/61 136/186/61
f 137/187/61 139/189/61 138/188/61
f 140/190/61 139/189/61 137/187/61
f 140/190/61 141/191/61 139/189/61
f 140/190/61 103/153/61 141/191/61
f 103/153/61 140/190/61 101/151/61
f 123/173/61 121/171/61 142/192/61
f 123/173/61 142/192/61 143/193/61
f 143/193/61 142/192/61 144/194/61
f 67/195/62 123/173/63 72/196/63
f 123/173/63 67/195/62 125/175/62
f 62/197/64 125/175/62 67/195/62
f 125/175/62 62/197/64 128/178/64
f 63/198/30 128/178/64 62/197/64
f 128/178/64 63/198/30 130/180/30
f 66/199/19 130/180/30 63/198/30
f 130/180/30 66/199/19 132/182/19
f 61/200/18 132/182/19 66/199/19
f 132/182/19 61/200/18 135/185/18
f 59/201/65 135/185/18 61/200/18
f 135/185/18 59/201/65 137/187/65
f 71/202/66 137/187/65 59/201/65
f 137/187/65 71/202/66 140/190/66
f 140/190/66 56/203/67 101/151/67
f 56/203/67 140/190/66 71/202/66
f 101/151/67 50/204/4 98/148/4
f 50/204/4 101/151/67 56/203/67
f 98/148/4 48/205/31 99/149/31
f 48/205/31 98/148/4 50/204/4
f 99/149/31 57/206/23 97/147/23
f 57/206/23 99/149/31 48/205/31
f 97/147/23 38/207/68 100/150/68
f 38/207/68 97/147/23 57/206/23
f 100/150/68 40/208/69 102/152/69
f 40/208/69 100/150/68 38/207/68
f 106/156/70 40/208/69 53/209/70
f 40/208/69 106/156/70 102/152/69
f 109/159/2 53/209/70 54/210/2
f 53/209/70 109/159/2 106/156/70
f 111/161/1 54/210/2 10/211/1
f 54/210/2 111/161/1 109/159/2
f 114/164/35 10/211/1 11/212/35
f 10/211/1 114/164/35 111/161/1
f 116/166/71 11/212/35 45/213/71
f 11/212/35 116/166/71 114/164/35
f 118/168/72 45/213/71 51/214/72
f 45/213/71 118/168/72 116/166/71
f 65/215/73 118/168/72 51/214/72
f 118/168/72 65/215/73 121/171/73
f 44/216/9 121/171/73 65/215/73
f 121/171/73 44/216/9 142/192/9
f 43/217/8 142/192/9 44/216/9
f 142/192/9 43/217/8 144/194/8
f 69/218/7 144/194/8 43/217/8
f 144/194/8 69/218/7 143/193/7
f 72/196/63 143/193/7 69/218/7
f 143/193/7 72/196/63 123/173/63
f 129/179/70 87/219/2 88/220/70
f 87/219/2 129/179/70 131/181/2
f 127/177/69 88/220/70 91/221/69
f 88/220/70 127/177/69 129/179/70
f 127/177/69 93/222/68 126/176/68
f 93/222/68 127/177/69 91/221/69
f 126/176/68 95/223/23 124/174/23
f 95/223/23 126/176/68 93/222/68
f 124/174/23 96/224/31 122/172/31
f 96/224/31 124/174/23 95/223/23
f 122/172/31 94/225/4 120/170/4
f 94/225/4 122/172/31 96/224/31
f 120/170/4 92/226/67 119/169/67
f 92/226/67 120/170/4 94/225/4
f 119/169/67 90/227/66 117/167/66
f 90/227/66 119/169/67 92/226/67
f 89/228/65 117/167/66 90/227/66
f 117/167/66 89/228/65 115/165/65
f 86/229/18 115/165/65 89/228/65
f 115/165/65 86/229/18 113/163/18
f 84/230/19 113/163/18 86/229/18
f 113/163/18 84/230/19 112/162/19
f 82/231/30 112/162/19 84/230/19
f 112/162/19 82/231/30 110/160/30
f 80/232/64 110/160/30 82/231/30
f 110/160/30 80/232/64 108/158/64
f 78/233/62 108/158/64 80/232/64
f 108/158/64 78/233/62 107/157/62
f 76/234/63 107/157/62 78/233/62
f 107/157/62 76/234/63 105/155/63
f 73/235/7 105/155/63 76/234/63
f 105/155/63 73/235/7 104/154/7
f 75/236/8 104/154/7 73/235/7
f 104/154/7 75/236/8 103/153/8
f 74/237/9 103/153/8 75/236/8
f 103/153/8 74/237/9 141/191/9
f 77/238/73 141/191/9 74/237/9
f 141/191/9 77/238/73 139/189/73
f 79/239/72 139/189/73 77/238/73
f 139/189/73 79/239/72 138/188/72
f 136/186/71 79/239/72 81/240/71
f 79/239/72 136/186/71 138/188/72
f 134/184/35 81/240/71 83/241/35
f 81/240/71 134/184/35 136/186/71
f 133/183/1 83/241/35 85/242/1
f 83/241/35 133/183/1 134/184/35
f 131/181/2 85/242/1 87/219/2
f 85/242/1 131/181/2 133/183/1
f 145/243/61 146/244/61 147/245/61
f 146/244/61 145/243/61 148/246/61
f 149/247/11 150/248/11 151/249/11
f 150/248/11 149/247/11 152/250/11
f 153/251/8 154/252/8 155/253/8
f 154/252/8 153/251/8 156/254/8
f 157/255/19 153/251/19 158/256/19
f 153/251/19 157/255/19 156/254/19
f 154/252/1 159/257/1 155/253/1
f 159/257/1 154/252/1 160/258/1
f 157/255/31 159/257/31 160/258/31
f 159/257/31 157/255/31 158/256/31
f 145/243/74 160/258/74 154/252/74
f 160/258/74 145/243/74 147/245/74
f 147/245/75 157/255/75 160/258/75
f 157/255/75 147/245/75 146/244/75
f 146/244/76 156/254/76 157/255/76
f 156/254/76 146/244/76 148/246/76
f 156/254/77 145/243/77 154/252/77
f 145/243/77 156/254/77 148/246/77
f 152/250/78 153/251/78 155/253/78
f 153/251/78 152/250/78 149/247/78
f 158/256/79 150/248/79 159/257/79
f 150/248/79 158/256/79 151/249/79
f 155/253/80 150/248/80 152/250/80
f 150/248/80 155/253/80 159/257/80
f 158/256/81 149/247/81 151/249/81
f 149/247/81 158/256/81 153/251/81
