# Blender v3.1.2 OBJ File: 'crystal-tower.blend'
# www.blender.org
o gem_mine_tower_detail_crystalLarge
v 0.234885 0.532243 0.030452
v 0.271983 0.430785 0.186231
v 0.271983 0.430785 -0.031641
v 0.234885 0.532243 0.124137
v 0.007326 0.100426 0.138495
v 0.125555 0.068747 0.016095
v 0.125555 0.068747 0.138495
v 0.007326 0.100426 0.016095
v 0.144392 0.556491 0.030452
v 0.061535 0.487174 -0.031641
v 0.054495 0.460901 0.186231
v 0.054495 0.460901 -0.031641
v 0.264943 0.404511 -0.031641
v 0.264943 0.404511 0.186231
v 0.061535 0.487174 0.186231
v 0.144392 0.556491 0.124137
v -0.244552 0.380828 -0.158774
v -0.180752 0.327454 -0.038825
v -0.180752 0.327454 -0.206586
v -0.244552 0.380828 -0.086637
v -0.230048 0.005265 -0.075581
v -0.139011 0.029658 -0.169830
v -0.139011 0.029658 -0.075581
v -0.230048 0.005265 -0.169830
v -0.314231 0.362157 -0.158774
v -0.342797 0.284034 -0.206586
v -0.337376 0.263804 -0.038825
v -0.337376 0.263804 -0.206586
v -0.175331 0.307223 -0.206586
v -0.175331 0.307223 -0.038825
v -0.342797 0.284034 -0.038825
v -0.314231 0.362157 -0.086637
v -0.190038 0.005265 0.210812
v -0.149431 0.263803 0.375228
v -0.283763 0.263803 0.274735
v -0.114571 0.005265 0.267269
v -0.189875 0.380828 0.229048
v -0.055609 0.327454 0.249814
v -0.189941 0.327454 0.149321
v -0.132112 0.380828 0.272260
v -0.052362 0.307223 0.245474
v -0.135505 0.029658 0.137916
v -0.186694 0.307223 0.144981
v -0.060038 0.029658 0.194373
v -0.231614 0.362157 0.284843
v -0.287010 0.284034 0.279076
v -0.152678 0.284034 0.379569
v -0.173851 0.362157 0.328055
v -0.444641 0.049583 0.246582
v -0.288572 0.099166 0.313556
v -0.368399 0.099166 0.162009
v 0.282057 0.049583 0.264643
v 0.068912 -0.000000 0.451414
v 0.297336 -0.000000 0.268426
v 0.068912 0.274272 0.362786
v 0.174288 0.274272 0.278370
v 0.082933 0.418608 -0.188933
v 0.201534 0.156305 0.030453
v 0.118901 0.156305 -0.249960
v 0.143337 0.418608 0.016046
v -0.134716 0.418608 0.046669
v -0.134716 0.418608 -0.113673
v -0.223830 0.189248 0.028644
v -0.289195 0.000000 -0.127580
v -0.230535 0.099166 -0.011478
v -0.221339 0.033164 -0.088752
v -0.317275 0.099166 -0.011478
v -0.385702 0.000000 -0.127580
v 0.157851 0.274272 0.060973
v 0.186182 0.156305 0.042752
v 0.168701 0.217301 0.042563
v 0.204894 0.156305 0.106251
v 0.198102 0.274272 0.197560
v 0.271742 -0.000000 0.181573
v -0.177940 0.189248 -0.127082
v -0.112538 0.418608 -0.188933
v -0.143989 0.189248 -0.242295
v -0.243816 0.099166 0.033591
v -0.067126 0.189248 -0.411372
v 0.005202 0.000000 -0.431812
v -0.014892 0.000000 -0.500000
v -0.005898 0.064894 -0.378307
v -0.017302 0.189248 -0.242295
v 0.003981 0.127640 -0.256629
v -0.288572 0.031401 -0.485294
v -0.297239 0.000000 -0.500000
v -0.169817 0.189248 -0.411372
v 0.129175 0.274272 0.060973
v -0.014802 0.274272 0.176311
v -0.014802 0.418608 0.142730
v 0.377104 0.156305 -0.031704
v 0.500000 0.000000 -0.001282
v 0.022910 0.156305 -0.249960
v 0.242619 0.156305 -0.302939
v 0.335927 0.156305 -0.171439
v 0.349035 0.049583 -0.390931
v -0.035601 -0.000000 0.367689
v -0.088066 0.099166 0.293616
v -0.074995 0.274272 0.247504
v -0.128954 0.099166 0.260861
v -0.384490 0.000000 -0.203919
v -0.299973 0.189248 -0.224841
v -0.096709 0.099166 0.151437
v -0.046527 0.274272 0.150897
v 0.038522 0.156305 -0.302939
v -0.200765 0.099166 0.383898
v 0.373129 0.000000 -0.431812
v -0.268239 0.189248 -0.332527
v -0.200765 -0.000000 0.500000
v -0.500000 -0.000000 0.260286
vt 0.362631 0.302835
vt 0.362631 0.302835
vt 0.362631 0.302835
vt 0.362631 0.302835
vt -3.543307 3.543307
vt 3.543307 -3.543307
vt 3.543307 3.543307
vt -3.543307 -3.543307
vt 0.362631 0.302835
vt 0.362631 0.302835
vt 0.362631 0.302835
vt 0.362631 0.302835
vt 0.362631 0.302835
vt 0.362631 0.302835
vt 0.362631 0.302835
vt 0.362631 0.302835
vt 0.362631 0.302835
vt 0.362631 0.302835
vt 0.362631 0.302835
vt 0.362631 0.302835
vt 0.362631 0.302835
vt 0.362631 0.302835
vt 0.362631 0.302835
vt 0.362631 0.302835
vt -3.543307 3.543307
vt 3.543307 -3.543307
vt 3.543307 3.543307
vt -3.543307 -3.543307
vt 0.362631 0.302835
vt 0.362631 0.302835
vt 0.362631 0.302835
vt 0.362631 0.302835
vt 0.362631 0.302835
vt 0.362631 0.302835
vt 0.362631 0.302835
vt 0.362631 0.302835
vt 0.362631 0.302835
vt 3.543307 0.465258
vt -6.307086 21.513639
vt -3.543307 0.465258
vt 6.307086 21.513639
vt -3.543307 0.465258
vt 3.543307 0.465258
vt 0.362631 0.302835
vt 0.362631 0.302835
vt 0.362631 0.302835
vt 0.362631 0.302835
vt 0.362631 0.302835
vt 0.362631 0.302835
vt 0.362631 0.302835
vt 0.362631 0.302835
vt 0.362631 0.302835
vt 0.362631 0.302835
vt 0.362631 0.302835
vt 0.362631 0.302835
vt 0.362631 0.302835
vt 0.362631 0.302835
vt 0.362631 0.302835
vt 0.362631 0.302835
vt 0.362630 0.302835
vt -5.157666 -3.461991
vt -1.447115 0.248560
vt -5.157666 0.248560
vt -1.447115 -3.461991
vt 0.362631 0.302835
vt 0.631530 0.373517
vt 0.631530 0.373517
vt 0.631530 0.373517
vt 0.631530 0.373517
vt 0.631530 0.373517
vt 0.631530 0.373517
vt 0.631530 0.373517
vt 0.631530 0.373517
vt 0.631530 0.373517
vt 0.631530 0.373517
vt 0.631530 0.373517
vt 0.631530 0.373517
vt 0.631530 0.373517
vt 0.631530 0.373517
vt 0.631530 0.373517
vt 0.631530 0.373517
vt 0.631530 0.373517
vt 0.631530 0.373517
vt 0.631530 0.373517
vt 0.631530 0.373517
vt 0.801018 0.377651
vt 0.801018 0.377651
vt 0.801018 0.377651
vt 0.631530 0.373517
vt 0.631530 0.373517
vt 0.631530 0.373517
vt 0.631530 0.373517
vt 0.631530 0.373517
vt 0.631530 0.373517
vt 0.631530 0.373517
vt 0.631530 0.373517
vt 0.631530 0.373517
vt 0.631530 0.373517
vt 0.631530 0.373517
vt 0.631530 0.373517
vt 0.631530 0.373517
vt 0.631530 0.373517
vt 0.631530 0.373517
vt 0.631530 0.373517
vt 0.631530 0.373517
vt 0.631530 0.373517
vt 0.631530 0.373517
vt 4.305398 7.537130
vt 4.104563 15.581030
vt 2.666760 9.813596
vt 0.631530 0.373517
vt 0.631530 0.373517
vt 0.631530 0.373517
vt 0.801018 0.377651
vt 0.801018 0.377651
vt 0.801018 0.377651
vt 0.631530 0.373517
vt 0.631530 0.373517
vt 0.631530 0.373517
vt 0.631530 0.373517
vt 0.631530 0.373517
vt 0.631530 0.373517
vt 0.631530 0.373517
vt 0.631530 0.373517
vt 0.631530 0.373517
vt 0.631530 0.373517
vt 0.631530 0.373517
vt 0.631530 0.373517
vt 0.631530 0.373517
vt 0.631530 0.373517
vt 0.362631 0.302835
vt 0.362631 0.302835
vt 0.362630 0.302835
vt 0.631530 0.373517
vt -6.157706 10.985720
vt -6.580957 8.642659
vt -5.039045 10.985720
vt 0.631530 0.373517
vt 0.631530 0.373517
vt 0.631530 0.373517
vt 0.631530 0.373517
vt 0.631530 0.373517
vn 0.9392 0.3434 0.0000
vn -0.2588 -0.9659 -0.0000
vn 0.1488 0.5552 -0.8183
vn -0.9915 0.1297 0.0000
vn -0.0340 -0.1268 -0.9913
vn 0.9236 -0.3834 0.0000
vn -0.0340 -0.1268 0.9913
vn -0.9659 0.2588 0.0000
vn 0.2588 0.9659 0.0000
vn -0.0000 0.0000 1.0000
vn 0.9659 -0.2588 0.0000
vn 0.0000 0.0000 -1.0000
vn -0.6417 0.7670 0.0000
vn 0.1488 0.5552 0.8183
vn 0.6417 0.7670 0.0000
vn 0.2588 -0.9659 -0.0000
vn -0.1488 0.5552 -0.8183
vn -0.9236 -0.3834 -0.0000
vn 0.0340 -0.1268 -0.9913
vn 0.9915 0.1297 0.0000
vn 0.0340 -0.1268 0.9913
vn -0.9659 -0.2588 0.0000
vn -0.2588 0.9659 0.0000
vn 0.9659 0.2588 0.0000
vn -0.9392 0.3434 0.0000
vn -0.1488 0.5552 0.8183
vn -0.5532 -0.3834 0.7395
vn 0.3844 0.7670 -0.5138
vn 0.5940 0.1297 -0.7940
vn 0.5786 0.2588 -0.7734
vn -0.7444 0.5552 -0.3711
vn 0.8007 -0.0000 0.5990
vn 0.1550 -0.9659 -0.2072
vn -0.7734 -0.1268 -0.6210
vn 0.8142 -0.1268 0.5666
vn -0.1550 0.9659 0.2072
vn -0.8007 -0.0000 -0.5990
vn -0.5626 0.3434 0.7520
vn 0.5661 0.5552 0.6093
vn -0.5786 -0.2588 0.7734
vn -0.3761 0.8995 0.2225
vn 0.5658 0.2241 0.7935
vn 0.9324 0.1883 -0.3086
vn -0.9343 0.3564 0.0000
vn -0.9461 0.2475 -0.2091
vn -0.9411 0.2194 -0.2573
vn -0.0000 0.7152 -0.6989
vn 0.9174 0.2573 -0.3037
vn -0.9324 0.1883 -0.3086
vn 0.8857 0.3600 -0.2932
vn -0.0000 0.3788 -0.9255
vn 0.5728 0.1633 0.8032
vn 0.0000 1.0000 0.0000
vn 0.5008 0.5060 0.7022
vn 0.0000 0.1993 -0.9799
vn 0.4970 0.7720 -0.3962
vn -0.5658 0.2241 0.7935
vn -0.5508 0.3161 0.7724
vn -0.9174 0.2573 -0.3037
vn -0.7853 0.5619 -0.2600
vn -0.0000 0.2718 -0.9624
vn -0.0000 0.5846 -0.8113
vn 0.7853 0.5619 -0.2600
vn -0.4618 0.6061 -0.6476
vn 0.8720 0.3952 0.2887
vn 0.4461 0.6401 0.6255
vn -0.8857 0.3600 -0.2932
vn -0.6832 0.6943 -0.2262
vn -0.5728 0.1633 0.8032
vn -0.4461 0.6401 0.6255
s 1
f 1/1/1 2/2/1 3/3/1
f 2/2/1 1/1/1 4/4/1
f 5/5/2 6/6/2 7/7/2
f 6/6/2 5/5/2 8/8/2
f 9/9/3 3/3/3 10/10/3
f 3/3/3 9/9/3 1/1/3
f 8/11/4 11/12/4 12/13/4
f 11/12/4 8/11/4 5/14/4
f 12/13/5 6/15/5 8/11/5
f 6/15/5 12/13/5 13/16/5
f 14/17/6 6/15/6 13/16/6
f 6/15/6 14/17/6 7/18/6
f 14/17/7 5/14/7 7/18/7
f 5/14/7 14/17/7 11/12/7
f 11/12/8 10/10/8 12/13/8
f 10/10/8 11/12/8 15/19/8
f 9/9/9 4/4/9 1/1/9
f 4/4/9 9/9/9 16/20/9
f 2/2/10 11/12/10 14/17/10
f 11/12/10 2/2/10 15/19/10
f 2/2/11 13/16/11 3/3/11
f 13/16/11 2/2/11 14/17/11
f 10/10/12 13/16/12 12/13/12
f 13/16/12 10/10/12 3/3/12
f 15/19/13 9/9/13 10/10/13
f 9/9/13 15/19/13 16/20/13
f 4/4/14 15/19/14 2/2/14
f 15/19/14 4/4/14 16/20/14
f 17/21/15 18/22/15 19/23/15
f 18/22/15 17/21/15 20/24/15
f 21/25/16 22/26/16 23/27/16
f 22/26/16 21/25/16 24/28/16
f 25/29/17 19/23/17 26/30/17
f 19/23/17 25/29/17 17/21/17
f 24/31/18 27/32/18 28/33/18
f 27/32/18 24/31/18 21/34/18
f 28/33/19 22/35/19 24/31/19
f 22/35/19 28/33/19 29/36/19
f 30/37/20 22/35/20 29/36/20
f 22/38/20 30/39/20 23/40/20
f 30/41/21 21/42/21 23/43/21
f 21/34/21 30/37/21 27/32/21
f 27/32/22 26/30/22 28/33/22
f 26/30/22 27/32/22 31/44/22
f 25/29/23 20/24/23 17/21/23
f 20/24/23 25/29/23 32/45/23
f 18/22/10 27/32/10 30/37/10
f 27/32/10 18/22/10 31/44/10
f 18/22/24 29/36/24 19/23/24
f 29/36/24 18/22/24 30/37/24
f 26/30/12 29/36/12 28/33/12
f 29/36/12 26/30/12 19/23/12
f 31/44/25 25/29/25 26/30/25
f 25/29/25 31/44/25 32/45/25
f 20/24/26 31/44/26 18/22/26
f 31/44/26 20/24/26 32/45/26
f 33/46/27 34/47/27 35/48/27
f 34/47/27 33/46/27 36/49/27
f 37/50/28 38/51/28 39/52/28
f 38/51/28 37/50/28 40/53/28
f 41/54/29 42/55/29 43/56/29
f 42/55/29 41/54/29 44/57/29
f 38/51/30 43/56/30 39/52/30
f 43/56/30 38/51/30 41/54/30
f 45/58/31 39/52/31 46/59/31
f 39/52/31 45/58/31 37/50/31
f 41/54/32 47/60/32 34/47/32
f 47/60/32 41/54/32 38/51/32
f 36/61/33 42/62/33 44/63/33
f 42/62/33 36/61/33 33/64/33
f 35/48/34 42/55/34 33/46/34
f 42/55/34 35/48/34 43/56/34
f 44/57/35 34/47/35 36/49/35
f 34/47/35 44/57/35 41/54/35
f 45/58/36 40/53/36 37/50/36
f 40/53/36 45/58/36 48/65/36
f 46/59/37 43/56/37 35/48/37
f 43/56/37 46/59/37 39/52/37
f 47/60/38 45/58/38 46/59/38
f 45/58/38 47/60/38 48/65/38
f 38/51/39 48/65/39 47/60/39
f 48/65/39 38/51/39 40/53/39
f 34/47/40 46/59/40 35/48/40
f 46/59/40 34/47/40 47/60/40
f 49/66/41 50/67/41 51/68/41
f 52/69/42 53/70/42 54/71/42
f 53/70/42 52/69/42 55/72/42
f 55/72/42 52/69/42 56/73/42
f 57/74/43 58/75/43 59/76/43
f 58/75/43 57/74/43 60/77/43
f 61/78/44 62/79/45 63/80/46
f 64/81/47 65/82/47 66/83/47
f 65/82/47 64/81/47 67/84/47
f 67/84/47 64/81/47 68/85/47
f 69/86/48 70/87/48 71/88/48
f 70/89/48 69/90/48 72/91/48
f 72/91/48 69/90/48 73/92/48
f 72/91/48 73/92/48 74/93/48
f 74/93/48 73/92/48 54/71/48
f 54/71/48 73/92/48 52/69/48
f 75/94/49 76/95/49 77/96/49
f 76/95/49 75/94/49 62/79/45
f 62/79/45 75/94/49 66/83/49
f 62/79/45 66/83/49 63/80/46
f 63/80/46 66/83/49 65/82/49
f 63/80/46 65/82/49 78/97/49
f 79/98/50 80/99/50 81/100/50
f 80/99/50 79/98/50 82/101/50
f 82/101/50 79/98/50 83/102/50
f 82/101/50 83/102/50 84/103/50
f 85/104/51 81/100/51 86/105/51
f 81/100/51 85/104/51 79/98/51
f 79/98/51 85/104/51 87/106/51
f 60/77/52 70/89/52 58/75/52
f 70/89/52 60/77/52 71/107/52
f 71/108/52 60/109/52 88/110/52
f 88/111/52 60/77/52 89/112/52
f 89/112/52 60/77/52 90/113/52
f 57/74/53 90/113/53 60/77/53
f 90/113/53 57/74/53 76/95/53
f 90/113/53 76/95/53 61/78/53
f 61/114/53 76/115/53 62/116/53
f 91/117/54 74/93/54 92/118/54
f 74/93/54 91/117/54 72/91/54
f 83/102/55 93/119/55 84/103/55
f 93/119/55 83/102/55 59/76/55
f 59/76/55 83/102/55 57/74/55
f 57/74/55 83/102/55 77/96/55
f 57/74/55 77/96/55 76/95/55
f 94/120/56 95/121/56 96/122/56
f 55/72/57 97/123/57 53/70/57
f 97/123/57 55/72/57 98/124/57
f 99/125/57 98/124/57 55/72/57
f 98/124/57 99/125/57 100/126/57
f 66/83/58 101/127/58 64/81/58
f 101/127/58 66/83/58 102/128/58
f 102/128/58 66/83/58 75/94/58
f 103/129/59 99/125/59 104/130/59
f 99/131/59 103/132/59 100/133/59
f 69/90/53 56/73/53 73/92/53
f 56/73/53 69/90/53 55/72/53
f 55/72/53 69/90/53 88/111/53
f 55/72/53 88/111/53 89/112/53
f 55/72/53 89/112/53 99/125/53
f 99/125/53 89/112/53 104/130/53
f 84/103/60 105/134/60 82/101/60
f 105/134/60 84/103/60 93/119/60
f 69/135/61 71/136/61 88/137/61
f 67/84/53 78/97/53 65/82/53
f 78/97/53 67/84/53 50/67/53
f 50/67/53 67/84/53 51/68/53
f 106/138/53 78/97/53 50/67/53
f 100/126/53 78/97/53 106/138/53
f 78/97/53 100/126/53 103/129/53
f 106/138/53 98/124/53 100/126/53
f 82/101/62 107/139/62 80/99/62
f 107/139/62 82/101/62 96/122/62
f 96/122/62 82/101/62 94/120/62
f 94/120/62 82/101/62 105/134/62
f 96/122/63 92/118/63 107/139/63
f 92/118/63 96/122/63 95/121/63
f 92/118/63 95/121/63 91/117/63
f 85/104/64 108/140/64 87/106/64
f 56/73/65 52/69/65 73/92/65
f 79/98/53 77/96/53 83/102/53
f 77/96/53 79/98/53 87/106/53
f 77/96/53 87/106/53 75/94/53
f 75/94/53 87/106/53 108/140/53
f 75/94/53 108/140/53 102/128/53
f 98/124/66 109/141/66 97/123/66
f 109/141/66 98/124/66 106/138/66
f 101/127/67 85/104/67 86/105/67
f 85/104/67 101/127/67 108/140/67
f 108/140/67 101/127/67 102/128/67
f 68/85/68 51/68/68 67/84/68
f 51/68/68 68/85/68 49/66/68
f 49/66/68 68/85/68 110/142/68
f 95/121/53 72/91/53 91/117/53
f 72/91/53 95/121/53 94/120/53
f 72/91/53 94/120/53 58/75/53
f 58/75/53 94/120/53 59/76/53
f 59/76/53 94/120/53 105/134/53
f 59/76/53 105/134/53 93/119/53
f 70/89/53 72/91/53 58/75/53
f 90/113/69 104/130/69 89/112/69
f 61/78/69 104/130/69 90/113/69
f 63/80/69 104/130/69 61/78/69
f 78/97/69 104/130/69 63/80/69
f 104/130/69 78/97/69 103/129/69
f 50/67/70 109/141/70 106/138/70
f 109/141/70 50/67/70 110/142/70
f 110/142/70 50/67/70 49/66/70
