# Blender v3.1.2 OBJ File: 'crystal-tower.blend'
# www.blender.org
o root_towerRound_crystals.004
v 0.000000 0.136875 -0.022097
v -0.000000 0.136875 0.022097
v 0.022097 0.136875 0.000000
v -0.022097 0.136875 0.000000
v -0.022097 -0.136875 -0.000000
v 0.022097 -0.136875 -0.000000
v -0.000000 -0.136875 0.022097
v 0.000000 -0.136875 -0.022097
v -0.088388 -0.061875 -0.000000
v 0.000000 0.061875 -0.088388
v 0.000000 -0.061875 -0.088388
v -0.088388 0.061875 0.000000
v -0.000000 0.061875 0.088388
v -0.000000 -0.061875 0.088388
v 0.088388 -0.061875 -0.000000
v 0.088388 0.061875 0.000000
vt 0.963058 0.863518
vt 0.963058 0.863518
vt 0.963058 0.863518
vt 0.963058 0.863518
vt 0.963058 0.863518
vt 0.963058 0.863518
vt 0.963058 0.863518
vt 0.963058 0.863518
vt 0.963058 0.863518
vt 0.963058 0.863518
vt 0.963058 0.863518
vt 0.963058 0.863518
vt 0.963058 0.863518
vt 0.963058 0.863518
vt 0.963058 0.863518
vt 0.963058 0.863518
vn 0.0000 1.0000 0.0000
vn 0.0000 -1.0000 0.0000
vn -0.7071 0.0000 -0.7071
vn -0.7071 -0.0000 0.7071
vn 0.7071 0.0000 -0.7071
vn 0.7071 -0.0000 0.7071
vn 0.6671 0.3317 -0.6671
vn 0.6671 0.3317 0.6671
vn -0.6671 0.3317 0.6671
vn -0.6671 0.3317 -0.6671
vn -0.6671 -0.3317 -0.6671
vn 0.6671 -0.3317 0.6671
vn 0.6671 -0.3317 -0.6671
vn -0.6671 -0.3317 0.6671
s 1
f 1/1/1 2/2/1 3/3/1
f 2/2/1 1/1/1 4/4/1
f 5/5/2 6/6/2 7/7/2
f 6/6/2 5/5/2 8/8/2
f 9/9/3 10/10/3 11/11/3
f 10/10/3 9/9/3 12/12/3
f 13/13/4 9/9/4 14/14/4
f 9/9/4 13/13/4 12/12/4
f 10/10/5 15/15/5 11/11/5
f 15/15/5 10/10/5 16/16/5
f 13/13/6 15/15/6 16/16/6
f 15/15/6 13/13/6 14/14/6
f 1/1/7 16/16/7 10/10/7
f 16/16/7 1/1/7 3/3/7
f 3/3/8 13/13/8 16/16/8
f 13/13/8 3/3/8 2/2/8
f 2/2/9 12/12/9 13/13/9
f 12/12/9 2/2/9 4/4/9
f 12/12/10 1/1/10 10/10/10
f 1/1/10 12/12/10 4/4/10
f 8/8/11 9/9/11 11/11/11
f 9/9/11 8/8/11 5/5/11
f 14/14/12 6/6/12 15/15/12
f 6/6/12 14/14/12 7/7/12
f 11/11/13 6/6/13 8/8/13
f 6/6/13 11/11/13 15/15/13
f 14/14/14 5/5/14 7/7/14
f 5/5/14 14/14/14 9/9/14
